<svg xmlns="http://www.w3.org/2000/svg" viewBox="0 0 64 64" fill="none" role="img" aria-label="GhostKeys">
  <!-- soft glow -->
  <circle cx="32" cy="34" r="28" fill="#0F8A52" fill-opacity="0.12"/>
  <!-- body -->
  <path
    fill="#0F8A52"
    d="M32 8c-11.6 0-21 9.2-21 20.5 0 3.4.7 6.6 2 9.5v12.2c0 1.8 2.1 2.7 3.4 1.5l3.6-3.3 3.6 3.3c1.3 1.2 3.4.3 3.4-1.5V48l3.5 3.2c1.3 1.2 3.3.3 3.3-1.5V48l3.5 3.2c1.3 1.2 3.3.3 3.3-1.5V48l3.6 3.3c1.3 1.2 3.4.3 3.4-1.5V38c1.3-2.9 2-6.1 2-9.5C53 17.2 43.6 8 32 8z"
  />
  <!-- face panel -->
  <ellipse cx="32" cy="28" rx="14" ry="12" fill="#F4FFF8"/>
  <!-- eyes -->
  <circle cx="26.5" cy="27" r="3.2" fill="#11181C"/>
  <circle cx="37.5" cy="27" r="3.2" fill="#11181C"/>
  <circle cx="27.5" cy="26" r="1.1" fill="#FFFFFF"/>
  <circle cx="38.5" cy="26" r="1.1" fill="#FFFFFF"/>
  <!-- shy smile -->
  <path d="M28 33.5c1.2 1.6 2.9 2.4 4 2.4s2.8-.8 4-2.4" stroke="#0B6B40" stroke-width="1.6" stroke-linecap="round"/>
  <!-- key badge -->
  <circle cx="32" cy="42" r="5.5" fill="#E8F8F0" stroke="#053A24" stroke-width="1.2"/>
  <circle cx="31" cy="41.5" r="1.6" fill="none" stroke="#0B6B40" stroke-width="1.3"/>
  <path d="M32.4 41.5h4.2l.1 1.4h-1.1v1.1h-1.2v-1.1h-2" stroke="#0B6B40" stroke-width="1.3" stroke-linecap="round" stroke-linejoin="round"/>
</svg>
